<?xml version="1.0" encoding="utf-8"?>
<!-- Generator: Adobe Illustrator 20.1.0, SVG Export Plug-In . SVG Version: 6.00 Build 0)  -->
<svg version="1.1" id="Layer_1" xmlns="http://www.w3.org/2000/svg" xmlns:xlink="http://www.w3.org/1999/xlink" x="0px" y="0px"
	 viewBox="0 0 1000 1000" style="enable-background:new 0 0 1000 1000;" xml:space="preserve">
<style type="text/css">
	.st0{fill:#6756fb;}
</style>
<g>
	<g>
		<g>
			<path class="st0" d="M501.4,220.8c16.3,0,29.5,13.2,29.5,29.5s-13.2,29.5-29.5,29.5s-29.5-13.2-29.5-29.5
				C471.9,234,485.2,220.8,501.4,220.8z"/>
			<rect x="457.4" y="792.7" class="st0" width="67.4" height="25.9"/>
			<rect x="457.4" y="832.1" class="st0" width="67.4" height="25.9"/>
			<rect x="457.4" y="867.3" class="st0" width="67.4" height="25.9"/>
			<path class="st0" d="M524.8,927v-20.2h-67.4V927c-22.4,12.1-37.7,35.7-37.7,63c106.7,0,70.2,0,142.9,0
				C562.5,962.7,547.2,939,524.8,927z"/>
			<rect x="612" y="792.7" class="st0" width="67.4" height="25.9"/>
			<rect x="612" y="832.1" class="st0" width="67.4" height="25.9"/>
			<rect x="612" y="867.3" class="st0" width="67.4" height="25.9"/>
			<path class="st0" d="M679.4,927v-20.2H612V927c-22.4,12.1-37.7,35.7-37.7,63c106.8,0,70.2,0,142.8,0
				C717.1,962.7,701.8,939,679.4,927z"/>
			<path class="st0" d="M633.3,220.8c16.3,0,29.5,13.2,29.5,29.5s-13.2,29.5-29.5,29.5s-29.5-13.2-29.5-29.5S617,220.8,633.3,220.8z
				"/>
			<path class="st0" d="M866.6,682.6L866.6,682.6L740.3,432.5h-0.1l0,0h-98.3v-62.2h68.5V168.9h-83v-41.5h-54.8V40.7h11.2V10h-16.4
				H551v30.7h11.2v86.8h-54.9V169h-82.9v201.3h68.5v62.2h-99.2l-75.4,92.9L184.6,404.3v-49.2h-27V424H88.7v27h54.9l181.5,164.4
				l68.6-84.1V734h62.2v46.6h67.3V734h87.3v46.6H678V734h62.2V570.1l66.7,132l-21.3,50.5l24.9,10.5l26.8-63.5l63.5,26.8l10.5-24.9
				L866.6,682.6z M683.5,250.3c0,27.7-22.5,50.1-50.2,50.1s-50.1-22.4-50.1-50.1s22.4-50.1,50.1-50.1
				C661,200.1,683.5,222.6,683.5,250.3z M451.3,250.3c0-27.7,22.4-50.1,50.1-50.1c27.7,0,50.1,22.4,50.1,50.1s-22.4,50.1-50.1,50.1
				C473.8,300.4,451.3,278,451.3,250.3z M596.1,666.1H446.2v-39.8h149.9V666.1z M596.1,603.1H446.2v-39.9h149.9V603.1z M596.1,538.8
				H446.2V499h149.9V538.8z M567.4,340.4h-56.2v-19.9h56.2h56.2v19.9H567.4z M690.7,666.1h-72.2v-39.8h72.2V666.1z M690.7,603.1
				h-72.2v-39.9h72.2V603.1z M690.7,538.8h-72.2V499h72.2V538.8z"/>
		</g>
	</g>
</g>
</svg>
